<svg width="14" height="16" viewBox="0 0 14 16" fill="none" xmlns="http://www.w3.org/2000/svg">
<path d="M1.16699 6.44214C1.16699 10.081 4.70405 13.0902 6.26965 14.2439C6.49371 14.409 6.60709 14.4926 6.77425 14.5349C6.90441 14.5679 7.09599 14.5679 7.22616 14.5349C7.39363 14.4925 7.50621 14.4098 7.73112 14.244C9.29672 13.0903 12.8336 10.0813 12.8336 6.44247C12.8336 5.06539 12.219 3.74454 11.1251 2.77079C10.0311 1.79705 8.54749 1.25 7.00039 1.25C5.4533 1.25 3.9695 1.79713 2.87554 2.77087C1.78157 3.74462 1.16699 5.06505 1.16699 6.44214Z" stroke="#49454F" stroke-width="2" stroke-linecap="round" stroke-linejoin="round"/>
<path d="M5.33366 5.75C5.33366 6.57843 6.07985 7.25 7.00033 7.25C7.9208 7.25 8.66699 6.57843 8.66699 5.75C8.66699 4.92157 7.9208 4.25 7.00033 4.25C6.07985 4.25 5.33366 4.92157 5.33366 5.75Z" stroke="#49454F" stroke-width="2" stroke-linecap="round" stroke-linejoin="round"/>
</svg>
