<svg width="19" height="18" viewBox="0 0 19 18" fill="none" xmlns="http://www.w3.org/2000/svg">
<path d="M17.5688 18.0054L11.2688 11.7054C10.7688 12.1054 10.1937 12.422 9.54375 12.6554C8.89375 12.8887 8.20208 13.0054 7.46875 13.0054C5.65208 13.0054 4.11458 12.3762 2.85625 11.1179C1.59792 9.85954 0.96875 8.32204 0.96875 6.50537C0.96875 4.6887 1.59792 3.1512 2.85625 1.89287C4.11458 0.634538 5.65208 0.00537109 7.46875 0.00537109C9.28542 0.00537109 10.8229 0.634538 12.0813 1.89287C13.3396 3.1512 13.9688 4.6887 13.9688 6.50537C13.9688 7.2387 13.8521 7.93037 13.6188 8.58037C13.3854 9.23037 13.0687 9.80537 12.6687 10.3054L18.9688 16.6054L17.5688 18.0054ZM7.46875 11.0054C8.71875 11.0054 9.78125 10.5679 10.6562 9.69287C11.5312 8.81787 11.9688 7.75537 11.9688 6.50537C11.9688 5.25537 11.5312 4.19287 10.6562 3.31787C9.78125 2.44287 8.71875 2.00537 7.46875 2.00537C6.21875 2.00537 5.15625 2.44287 4.28125 3.31787C3.40625 4.19287 2.96875 5.25537 2.96875 6.50537C2.96875 7.75537 3.40625 8.81787 4.28125 9.69287C5.15625 10.5679 6.21875 11.0054 7.46875 11.0054Z" fill="#49454F"/>
</svg>
